Coordinates
version=1
nRows=4
nColumns=63
inDegrees=yes

Units are S.I. units (second, meters, Newtons, ...)
If the header above contains a line with 'inDegrees', this indicates whether rotational values are in degrees (yes) or radians (no).

endheader
time	pelvis_tilt	pelvis_list	pelvis_rotation	pelvis_tx	pelvis_ty	pelvis_tz	hip_flexion_r	hip_adduction_r	hip_rotation_r	knee_angle_r	knee_angle_r_beta	ankle_angle_r	subtalar_angle_r	mtp_angle_r	hip_flexion_l	hip_adduction_l	hip_rotation_l	knee_angle_l	knee_angle_l_beta	ankle_angle_l	subtalar_angle_l	mtp_angle_l	L5_S1_Flex_Ext	L5_S1_Lat_Bending	L5_S1_axial_rotation	L4_L5_Flex_Ext	L4_L5_Lat_Bending	L4_L5_axial_rotation	L3_L4_Flex_Ext	L3_L4_Lat_Bending	L3_L4_axial_rotation	L2_L3_Flex_Ext	L2_L3_Lat_Bending	L2_L3_axial_rotation	L1_L2_Flex_Ext	L1_L2_Lat_Bending	L1_L2_axial_rotation	L1_T12_Flex_Ext	L1_T12_Lat_Bending	L1_T12_axial_rotation	Abs_r3	Abs_r2	Abs_r1	Abs_t1	Abs_t2	neck_flexion	neck_bending	neck_rotation	arm_flex_r	arm_add_r	arm_rot_r	elbow_flex_r	pro_sup_r	wrist_flex_r	wrist_dev_r	arm_flex_l	arm_add_l	arm_rot_l	elbow_flex_l	pro_sup_l	wrist_flex_l	wrist_dev_l
      5.65000000	      6.34037307	      1.72233347	     93.64326228	      0.20453499	      0.93407389	      0.55595416	     -9.48527880	     -1.76595191	    -18.97683457	      6.13597797	      0.10709302	     24.21075100	      5.74646481	      0.00000000	    -11.68457150	     -8.24672009	     -7.54433687	      5.78367291	      0.10094414	     16.30270730	     16.11974446	      0.00000000	     -0.78119511	      0.71753970	      5.91393099	     -1.45075744	      0.95432780	      6.28355168	     -1.28342544	      1.74462603	      6.28355168	     -0.89282789	      1.74462603	      5.17468962	     -0.72541778	      1.46320696	      4.80506893	     -0.44637489	      1.11146900	      4.43544824	     -5.57999855	      8.11695262	     32.89150999	      0.00000000	      0.00000000	     -3.91186399	      5.84984193	    -44.52466775	      5.67635323	    -40.14632651	   -414.89156411	    134.92440936	     83.07847139	    -10.96325929	     21.31885349	     89.39294896	     38.35856915	    154.95837967	      0.05702189	      0.79957558	    -69.88476950	    -24.53793942
      5.66666667	      6.23282577	      1.90603695	     93.41068887	      0.19795456	      0.93450626	      0.55563581	     -9.27486696	     -2.20509962	    -18.85982514	      6.98074275	      0.12183695	     24.69051807	      5.49035499	      0.00000000	    -11.82610882	     -7.74897336	     -7.89803130	      5.97427917	      0.10427084	     16.75111029	     16.40422811	      0.00000000	     -0.76460072	      0.73308205	      6.21744148	     -1.41994000	      0.97499912	      6.60603157	     -1.25616253	      1.78241569	      6.60603157	     -0.87386216	      1.78241569	      5.44026129	     -0.71000823	      1.49490091	      5.05167120	     -0.43689285	      1.13554409	      4.66308111	     -5.46146650	      8.29277072	     34.57954426	      0.00000000	      0.00000000	     -4.31119309	      6.09941699	    -44.60844912	      1.04859516	    -40.36333709	   -418.96223154	    137.31177669	     82.26989465	    -12.60131545	     22.05936117	     88.75639060	     39.53844174	    156.53407237	      0.05607595	      0.82898368	    -69.88369672	    -24.54320571
      5.68333333	      6.03076284	      1.98001122	     92.56635185	      0.19249295	      0.93482984	      0.55560255	     -8.81875182	     -2.71049064	    -17.37392160	      7.80260188	      0.13618109	     25.22581532	      4.83329371	      0.00000000	    -11.93308624	     -7.01049207	     -9.11035131	      6.17739869	      0.10781595	     17.30429567	     16.91433371	      0.00000000	     -0.76344415	      0.73120191	      6.65072623	     -1.41779214	      0.97249854	      7.06639661	     -1.25426240	      1.77784433	      7.06639661	     -0.87254032	      1.77784433	      5.81938545	     -0.70893424	      1.49106694	      5.40371506	     -0.43623199	      1.13263176	      4.98804467	     -5.45320525	      8.27150226	     36.98934405	      0.00000000	      0.00000000	     -4.60360416	      6.81430544	    -44.66224479	     -3.69624157	    -40.54682927	   -423.53197575	    139.64734244	     79.32855527	    -14.43588719	     21.87799405	     88.42283443	     40.85373055	    157.73130086	      0.05536135	      0.87869222	    -69.88305793	    -24.55647681
      5.70000000	      5.63901511	      1.75542669	     92.00456009	      0.18758109	      0.93488443	      0.55617374	     -8.09681759	     -3.21643563	    -16.03713130	      8.51604399	      0.14863301	     25.62974143	      4.20712374	      0.00000000	    -11.47948820	     -6.15439586	     -9.67386825	      6.58020411	      0.11484623	     18.04423778	     17.15619719	      0.00000000	     -0.75436805	      0.68447387	      6.95317227	     -1.40093690	      0.91035024	      7.38774554	     -1.23935127	      1.66422976	      7.38774554	     -0.86216724	      1.66422976	      6.08402574	     -0.70050617	      1.39577911	      5.64945247	     -0.43104590	      1.06025002	      5.21487920	     -5.38837554	      7.74290526	     38.67145821	      0.00000000	      0.00000000	     -4.96319916	      7.91010477	    -44.68316954	     -7.08292214	    -40.37914341	   -427.15515832	    141.60330809	     77.98065742	    -15.46538397	     21.69426012	     88.31387125	     41.84430348	    158.86573316	      0.05461689	      0.89270965	    -69.88298466	    -24.56295968
